<svg width="20" height="20" viewBox="0 0 20 20" fill="none" xmlns="http://www.w3.org/2000/svg">
<path d="M1.66675 1.66663H3.11675C4.01675 1.66663 4.72508 2.44163 4.65008 3.33329L3.95841 11.6333C3.84175 12.9916 4.91674 14.1583 6.28341 14.1583H15.1584C16.3584 14.1583 17.4084 13.175 17.5001 11.9833L17.9501 5.7333C18.0501 4.34996 17.0001 3.22496 15.6084 3.22496H4.85009" stroke="white" stroke-width="1.5" stroke-miterlimit="10" stroke-linecap="round" stroke-linejoin="round"/>
<path d="M13.5417 18.3333C14.117 18.3333 14.5833 17.867 14.5833 17.2917C14.5833 16.7164 14.117 16.25 13.5417 16.25C12.9664 16.25 12.5 16.7164 12.5 17.2917C12.5 17.867 12.9664 18.3333 13.5417 18.3333Z" stroke="white" stroke-width="1.5" stroke-miterlimit="10" stroke-linecap="round" stroke-linejoin="round"/>
<path d="M6.87492 18.3333C7.45021 18.3333 7.91658 17.867 7.91658 17.2917C7.91658 16.7164 7.45021 16.25 6.87492 16.25C6.29962 16.25 5.83325 16.7164 5.83325 17.2917C5.83325 17.867 6.29962 18.3333 6.87492 18.3333Z" stroke="white" stroke-width="1.5" stroke-miterlimit="10" stroke-linecap="round" stroke-linejoin="round"/>
<path d="M7.5 6.66663H17.5" stroke="white" stroke-width="1.5" stroke-miterlimit="10" stroke-linecap="round" stroke-linejoin="round"/>
</svg>
