<?xml version="1.0" encoding="utf-8"?>
<!-- Generator: Adobe Illustrator 17.0.0, SVG Export Plug-In . SVG Version: 6.00 Build 0)  -->
<!DOCTYPE svg PUBLIC "-//W3C//DTD SVG 1.1//EN" "http://www.w3.org/Graphics/SVG/1.1/DTD/svg11.dtd">
<svg version="1.1" id="Layer_1" xmlns="http://www.w3.org/2000/svg" xmlns:xlink="http://www.w3.org/1999/xlink" x="0px" y="0px"
	 width="132.333px" height="36px" viewBox="0 0 132.333 36" enable-background="new 0 0 132.333 36" xml:space="preserve">
<g>
	
		<linearGradient id="SVGID_1_" gradientUnits="userSpaceOnUse" x1="-153.64" y1="222.055" x2="-115.64" y2="222.055" gradientTransform="matrix(1 0 0 -1 153.64 240.055)">
		<stop  offset="0" style="stop-color:#2979FF"/>
		<stop  offset="1" style="stop-color:#4C589E"/>
	</linearGradient>
	<path fill="url(#SVGID_1_)" d="M6,0h26c3.314,0,6,2.686,6,6v24c0,3.314-2.686,6-6,6H6c-3.314,0-6-2.686-6-6V6C0,2.686,2.686,0,6,0z
		"/>
	<path fill="#FFFFFF" d="M19.24,29.52c-1.813,0-3.584-0.331-5.312-0.992c-1.728-0.683-3.264-1.643-4.608-2.88l2.656-3.328
		c1.301,1.152,2.549,1.984,3.744,2.496c1.216,0.512,2.496,0.768,3.84,0.768c0.939,0,1.749-0.107,2.432-0.32
		c0.683-0.235,1.205-0.565,1.568-0.992c0.384-0.427,0.576-0.928,0.576-1.504c0-0.768-0.277-1.355-0.832-1.76
		c-0.555-0.427-1.504-0.757-2.848-0.992l-4.448-0.768c-1.899-0.32-3.349-0.992-4.352-2.016c-0.981-1.024-1.472-2.347-1.472-3.968
		c0-1.387,0.352-2.592,1.056-3.616c0.725-1.024,1.739-1.803,3.04-2.336c1.323-0.555,2.891-0.832,4.704-0.832
		c1.643,0,3.275,0.277,4.896,0.832c1.643,0.555,3.093,1.323,4.352,2.304l-2.496,3.456c-2.347-1.792-4.704-2.688-7.072-2.688
		c-0.832,0-1.557,0.107-2.176,0.32s-1.099,0.512-1.44,0.896c-0.32,0.363-0.48,0.8-0.48,1.312c0,0.683,0.245,1.216,0.736,1.6
		c0.491,0.363,1.312,0.64,2.464,0.832l4.224,0.704c2.24,0.363,3.915,1.077,5.024,2.144c1.109,1.045,1.664,2.432,1.664,4.16
		c0,1.451-0.384,2.72-1.152,3.808c-0.768,1.067-1.867,1.899-3.296,2.496C22.824,29.232,21.16,29.52,19.24,29.52z"/>
</g>
<path fill="#0C2146" d="M50.85,11.539h2.496v13.78H50.85V11.539z M52.098,8.887c-0.485,0-0.893-0.156-1.222-0.468
	c-0.312-0.312-0.468-0.693-0.468-1.144c0-0.451,0.156-0.832,0.468-1.144c0.329-0.329,0.737-0.494,1.222-0.494
	c0.485,0,0.884,0.156,1.196,0.468c0.329,0.295,0.494,0.667,0.494,1.118c0,0.468-0.165,0.867-0.494,1.196
	C52.982,8.731,52.584,8.887,52.098,8.887z M57.228,17.103h6.994v2.158h-6.994V17.103z M73.302,25.527
	c-1.369,0-2.695-0.208-3.978-0.624c-1.265-0.433-2.262-0.988-2.99-1.664l0.962-2.028c0.693,0.624,1.577,1.135,2.652,1.534
	c1.092,0.381,2.21,0.572,3.354,0.572c1.508,0,2.635-0.251,3.38-0.754c0.745-0.52,1.118-1.205,1.118-2.054
	c0-0.624-0.208-1.127-0.624-1.508c-0.399-0.399-0.901-0.702-1.508-0.91c-0.589-0.208-1.43-0.442-2.522-0.702
	c-1.369-0.329-2.479-0.659-3.328-0.988c-0.832-0.329-1.551-0.832-2.158-1.508c-0.589-0.693-0.884-1.621-0.884-2.782
	c0-0.971,0.251-1.846,0.754-2.626c0.52-0.78,1.3-1.404,2.34-1.872c1.04-0.468,2.331-0.702,3.874-0.702
	c1.075,0,2.132,0.139,3.172,0.416s1.933,0.676,2.678,1.196l-0.858,2.08c-0.763-0.485-1.577-0.849-2.444-1.092
	c-0.867-0.26-1.716-0.39-2.548-0.39c-1.473,0-2.583,0.269-3.328,0.806c-0.728,0.537-1.092,1.231-1.092,2.08
	c0,0.624,0.208,1.135,0.624,1.534c0.416,0.381,0.927,0.685,1.534,0.91c0.624,0.208,1.465,0.433,2.522,0.676
	c1.369,0.329,2.47,0.659,3.302,0.988s1.543,0.832,2.132,1.508c0.607,0.676,0.91,1.586,0.91,2.73c0,0.953-0.26,1.829-0.78,2.626
	c-0.52,0.78-1.309,1.404-2.366,1.872C76.144,25.302,74.844,25.527,73.302,25.527z M91.14,11.409c1.751,0,3.137,0.511,4.16,1.534
	c1.04,1.005,1.56,2.487,1.56,4.446v7.93h-2.496v-7.644c0-1.335-0.321-2.34-0.962-3.016c-0.641-0.676-1.56-1.014-2.756-1.014
	c-1.352,0-2.418,0.399-3.198,1.196c-0.78,0.78-1.17,1.907-1.17,3.38v7.098h-2.496V6.027h2.496v7.462
	c0.52-0.659,1.196-1.17,2.028-1.534C89.155,11.591,90.1,11.409,91.14,11.409z M107.457,25.475c-1.369,0-2.6-0.303-3.692-0.91
	c-1.092-0.607-1.95-1.439-2.574-2.496c-0.607-1.075-0.91-2.288-0.91-3.64c0-1.352,0.303-2.557,0.91-3.614
	c0.624-1.075,1.482-1.907,2.574-2.496c1.092-0.607,2.323-0.91,3.692-0.91c1.369,0,2.591,0.303,3.666,0.91
	c1.092,0.589,1.941,1.421,2.548,2.496c0.624,1.057,0.936,2.262,0.936,3.614c0,1.352-0.312,2.565-0.936,3.64
	c-0.607,1.057-1.456,1.889-2.548,2.496C110.049,25.172,108.827,25.475,107.457,25.475z M107.457,23.291
	c0.884,0,1.673-0.199,2.366-0.598c0.711-0.416,1.265-0.988,1.664-1.716c0.399-0.745,0.598-1.595,0.598-2.548
	c0-0.953-0.199-1.794-0.598-2.522c-0.399-0.745-0.953-1.317-1.664-1.716c-0.693-0.399-1.482-0.598-2.366-0.598
	s-1.681,0.199-2.392,0.598c-0.693,0.399-1.248,0.971-1.664,1.716c-0.399,0.728-0.598,1.569-0.598,2.522
	c0,0.953,0.199,1.803,0.598,2.548c0.416,0.728,0.971,1.3,1.664,1.716C105.776,23.092,106.573,23.291,107.457,23.291z
	 M125.365,11.409c1.335,0,2.531,0.295,3.588,0.884c1.057,0.589,1.881,1.413,2.47,2.47c0.607,1.057,0.91,2.279,0.91,3.666
	c0,1.387-0.303,2.617-0.91,3.692c-0.589,1.057-1.413,1.881-2.47,2.47c-1.057,0.589-2.253,0.884-3.588,0.884
	c-0.988,0-1.898-0.191-2.73-0.572c-0.815-0.381-1.508-0.936-2.08-1.664v7.124h-2.496V11.539h2.392v2.184
	c0.555-0.763,1.257-1.335,2.106-1.716C123.407,11.608,124.343,11.409,125.365,11.409z M125.157,23.291
	c0.884,0,1.673-0.199,2.366-0.598c0.711-0.416,1.265-0.988,1.664-1.716c0.416-0.745,0.624-1.595,0.624-2.548
	c0-0.953-0.208-1.794-0.624-2.522c-0.399-0.745-0.953-1.317-1.664-1.716c-0.693-0.399-1.482-0.598-2.366-0.598
	c-0.867,0-1.655,0.208-2.366,0.624c-0.693,0.399-1.248,0.962-1.664,1.69c-0.399,0.728-0.598,1.569-0.598,2.522
	c0,0.953,0.199,1.803,0.598,2.548c0.399,0.728,0.953,1.3,1.664,1.716C123.502,23.092,124.291,23.291,125.157,23.291z"/>
</svg>
