<svg width="17" height="16" viewBox="0 0 17 16" fill="none" xmlns="http://www.w3.org/2000/svg">
<path d="M14.9268 6.167C15.3944 6.18871 15.5784 6.78352 15.2048 7.06553L11.6415 9.75537C11.4828 9.87513 11.4102 10.0775 11.4565 10.2708L12.501 14.6349C12.6104 15.0922 12.0854 15.434 11.7115 15.1489L8.32361 12.5656C8.15269 12.4353 7.9176 12.4288 7.73973 12.5494L4.15341 14.9824C3.75852 15.2503 3.24855 14.8656 3.39778 14.4123L4.80254 10.1457C4.86613 9.9525 4.8064 9.74006 4.65146 9.60834L1.33499 6.78906C0.98189 6.4889 1.19181 5.91145 1.65524 5.90812L5.97598 5.87707C6.18161 5.87559 6.36538 5.74836 6.43913 5.5564L8.04301 1.38159C8.2146 0.934951 8.85519 0.961234 8.98962 1.42042L10.2162 5.6105C10.2762 5.81538 10.4597 5.95958 10.6729 5.96948L14.9268 6.167Z" fill="#FFC600"/>
</svg>
