<svg width="48" height="48" viewBox="0 0 48 48" fill="none" xmlns="http://www.w3.org/2000/svg">
<circle cx="24" cy="24" r="24" fill="#C4C4C4"/>
<path d="M23.9999 10.2858C16.4257 10.2858 10.2856 16.4258 10.2856 24.0001C10.2856 31.5743 16.4257 37.7143 23.9999 37.7143C31.5741 37.7143 37.7142 31.5743 37.7142 24.0001C37.7142 16.4258 31.5741 10.2858 23.9999 10.2858ZM23.9999 12.9401C30.1123 12.9401 35.0598 17.8867 35.0598 24.0001C35.0598 25.9068 34.5784 27.7001 33.7304 29.2653C32.9893 27.8058 31.6553 26.6362 30.0041 26.1369C30.757 24.9849 31.1612 23.6388 31.1612 22.2305C31.1612 18.2727 27.9583 15.0692 23.9999 15.0692C20.0422 15.0692 16.8386 18.2721 16.8386 22.2305C16.8386 23.6388 17.2429 24.9849 17.9957 26.1369C16.3466 26.6356 15.0117 27.8037 14.2694 29.2653C13.4215 27.7002 12.94 25.9069 12.94 24.0001C12.94 17.8877 17.8866 12.9401 23.9999 12.9401ZM19.576 22.2305C19.576 19.7872 21.5566 17.8065 23.9999 17.8065C26.4432 17.8065 28.4239 19.7872 28.4239 22.2305C28.4239 24.6738 26.4432 26.6544 23.9999 26.6544C21.5566 26.6544 19.576 24.6738 19.576 22.2305ZM16.262 31.9047C16.346 30.0247 17.8964 28.5261 19.7972 28.5261H20.5808C22.7008 29.6813 25.2999 29.6808 27.4191 28.5261H28.2027C30.1035 28.5261 31.6538 30.0247 31.7378 31.9047C27.4385 36.1138 20.5587 36.1111 16.262 31.9047Z" fill="#525252"/>
</svg>
